<svg version="1.1" id="Layer_1" xmlns="http://www.w3.org/2000/svg" xmlns:xlink="http://www.w3.org/1999/xlink" x="0px" y="0px"
	 width="100%" viewBox="0 0 950 450" enable-background="new 0 0 950 450" xml:space="preserve">

<path fill="#35334B" opacity="1.000000" stroke="none" 
	d="
M662.466431,390.685913 
	C713.165833,391.411804 761.968567,397.363556 770.054688,404.516876 
	C767.029480,405.797577 764.555603,407.422638 761.882996,407.875519 
	C750.739441,409.763885 739.588684,411.931519 728.346558,412.867493 
	C609.503723,422.761688 490.430603,422.607574 371.341705,420.122711 
	C329.563873,419.250977 287.794922,417.153412 246.073929,414.722687 
	C227.523270,413.641907 209.090408,410.432129 190.633072,407.971313 
	C187.859726,407.601532 185.245377,406.039185 182.557495,405.028473 
	C182.514252,404.432343 182.471024,403.836182 182.427795,403.240021 
	C185.013611,402.165405 187.510483,400.558197 190.200714,400.108887 
	C201.512222,398.219696 212.879608,396.663330 224.231277,395.017853 
	C226.536270,394.683746 228.861816,394.491364 231.630371,394.518768 
	C233.601227,395.940094 234.970367,397.651703 236.669144,398.092316 
	C240.166916,398.999512 243.826416,399.403656 247.445145,399.699982 
	C256.080566,400.407074 256.086609,400.333313 255.659912,392.389801 
	C281.663086,391.196686 307.213837,390.042816 333.061584,389.074585 
	C336.340393,394.440186 339.905457,399.268616 346.305511,399.883514 
	C354.217682,400.643738 362.202545,400.972870 370.154175,400.946106 
	C444.065979,400.697235 517.977417,400.328491 591.888916,400.004333 
	C600.576782,399.966217 605.614075,396.342041 608.947815,388.087891 
	C612.193054,388.435883 615.064941,388.599731 617.967896,389.182190 
	C618.307678,391.224884 618.531128,392.870819 618.941162,394.468872 
	C620.133789,399.117249 626.586426,402.444275 632.227783,400.859406 
	C637.353943,399.419281 635.810059,395.405518 634.992554,391.839020 
	C634.807800,391.032959 634.799622,390.186401 635.195801,389.323486 
	C640.104126,389.464081 644.526733,389.639618 648.968018,390.242554 
	C649.835999,392.998749 650.685303,395.327606 651.534546,397.656494 
	C653.788025,396.507477 656.122742,395.489929 658.267517,394.165100 
	C659.799133,393.219025 661.075928,391.860413 662.466431,390.685913 
z"/>

<path fill="#FFC108" opacity="1.000000" stroke="none" 
	d="
M567.572754,171.070801 
	C574.769958,159.835312 586.323181,155.058319 598.037598,150.517136 
	C600.999878,149.368790 603.952881,148.196548 607.412903,147.355728 
	C608.433777,155.005325 615.715210,154.966751 619.552612,158.416779 
	C621.944031,156.784286 624.279480,155.216949 626.586304,153.608582 
	C629.618103,151.494766 631.757996,148.910385 630.995789,144.872055 
	C633.945374,145.040527 636.980347,144.829971 639.823730,145.470291 
	C643.659058,146.333969 647.605591,147.371414 651.031311,149.213943 
	C655.143555,151.425644 659.411194,153.988785 662.437073,157.431915 
	C667.154724,162.800018 670.883545,169.037094 674.685913,175.456543 
	C671.273621,179.281937 668.206787,182.556747 664.816040,185.756256 
	C660.779907,183.173950 657.513245,179.309494 651.909058,181.768250 
	C651.909058,191.401230 651.981323,201.158691 651.851196,210.913437 
	C651.823486,212.994125 651.638733,215.482010 650.509338,217.049637 
	C648.445312,219.914474 649.420410,221.936722 651.001343,224.459045 
	C649.814819,227.980530 648.807556,231.193710 647.370361,234.499619 
	C631.296326,237.086502 615.652161,239.580643 599.604248,242.008026 
	C594.993347,241.989548 593.435120,240.298996 593.864563,235.785889 
	C594.880798,225.105530 595.790039,214.373947 595.857422,203.657532 
	C595.909729,195.349915 593.126465,187.522934 589.398071,181.097092 
	C583.818237,181.730484 579.125183,182.263214 574.300415,182.466980 
	C571.970032,178.448944 569.771362,174.759872 567.572754,171.070801 
z"/>
<path fill="#217867" opacity="1.00000" stroke="none" 
	d="
M600.008057,242.074783 
	C615.652161,239.580643 631.296326,237.086502 647.515442,234.878265 
	C650.032654,236.121826 651.974854,237.079468 653.916992,238.037109 
	C651.348816,268.777710 648.601929,299.505554 646.402893,330.272522 
	C646.068665,334.949554 648.276306,339.808289 649.586914,344.804443 
	C652.407288,347.903625 654.965698,350.766968 657.484070,353.665070 
	C658.773621,355.149048 659.991699,356.695221 660.770691,358.600159 
	C658.921021,359.869537 656.914368,360.438080 656.286072,361.695374 
	C654.614014,365.041382 652.798096,367.225433 648.555603,367.293243 
	C646.973999,367.318512 645.433167,369.902618 643.534790,371.240051 
	C641.585022,369.916687 639.974243,368.673187 638.225586,367.323303 
	C637.816833,369.212006 637.659668,370.881653 637.088501,372.395020 
	C635.565674,376.429535 633.864685,380.396820 632.171204,383.973083 
	C631.634033,379.578094 631.087830,375.462952 626.504150,374.138550 
	C621.654053,372.737213 621.650940,377.931213 618.896729,379.858398 
	C617.976990,376.507782 617.457397,373.255859 617.042969,369.602203 
	C617.570862,365.744873 617.914062,362.277283 618.433411,358.836273 
	C619.364685,352.666473 622.247681,346.060089 620.879028,340.478699 
	C619.492310,334.823303 613.946472,330.187775 609.892761,324.953552 
	C608.027771,321.322205 605.956299,317.976959 605.046326,314.341003 
	C600.189819,294.936249 596.191162,275.392242 598.075317,254.759583 
	C598.756775,250.251953 599.382385,246.163361 600.008057,242.074783 
M624.874451,303.559845 
	C625.160461,305.620239 625.446472,307.680634 625.732422,309.740997 
	C626.125427,309.689240 626.518372,309.637512 626.911316,309.585754 
	C627.327454,300.167175 627.743652,290.748596 628.159790,281.330048 
	C627.448853,281.183350 626.737976,281.036682 626.027039,280.889984 
	C625.382019,282.866547 624.213013,284.837921 624.193481,286.820679 
	C624.141296,292.104950 624.583679,297.394135 624.874451,303.559845 
z"/>
<path fill="#49485C" opacity="1.000000" stroke="none" 
	d="
M302.019592,311.153931 
	C302.073303,311.344025 302.180939,311.495941 302.217102,311.944397 
	C298.090729,317.604004 294.089722,322.928925 289.953064,328.382843 
	C283.614471,336.481476 277.355042,344.408081 271.233368,352.439697 
	C268.360168,356.209320 265.752350,360.181213 263.013580,364.031921 
	C263.002869,364.002380 263.065247,364.009735 262.711365,364.077209 
	C262.217102,364.762360 262.076721,365.380035 261.967896,365.999084 
	C261.999481,366.000458 261.984406,365.939117 261.643646,365.864532 
	C261.186768,366.197815 261.070618,366.605652 260.983063,367.012573 
	C261.011627,367.011597 261.007233,366.954651 260.733398,366.853333 
	C259.999573,367.330139 259.539581,367.908234 259.020691,368.851562 
	C254.242691,375.137756 249.523560,381.058777 244.473694,387.089233 
	C239.732346,387.703186 243.349045,383.995239 241.908722,382.941071 
	C244.506546,356.675018 253.658401,333.739075 276.969116,319.172394 
	C283.469055,315.110596 291.781281,313.948944 299.963074,311.385010 
	C301.115845,311.260101 301.567719,311.207001 302.019592,311.153931 
z"/>
<path fill="#A2656C" opacity="1.000000" stroke="none" 
	d="
M654.270203,237.970032 
	C651.974854,237.079468 650.032654,236.121826 647.945374,234.785522 
	C648.807556,231.193710 649.814819,227.980530 651.309753,224.328308 
	C653.818115,222.452209 655.960388,221.157288 657.837341,219.552139 
	C664.073914,214.218643 668.327087,208.053909 670.800110,199.727295 
	C673.011597,192.281052 669.967773,189.249466 665.139893,185.831573 
	C668.206787,182.556747 671.273621,179.281937 674.628357,175.806091 
	C678.171631,180.862595 681.427124,186.120102 684.871094,191.684006 
	C685.019714,202.111221 678.952148,209.204376 673.006714,216.454346 
	C670.214783,219.858948 668.301880,223.997360 665.434021,227.323303 
	C662.153198,231.128159 658.253906,234.399704 654.270203,237.970032 
z"/>
<path fill="#4B4A5E" opacity="1.000000" stroke="none" 
	d="
M231.980667,389.028625 
	C211.141891,382.442261 201.242767,366.487732 196.107346,346.683472 
	C194.757263,341.477051 194.443069,336.002045 193.653168,330.650360 
	C194.062393,330.474579 194.471619,330.298767 194.880844,330.122986 
	C200.623840,337.493683 206.366852,344.864410 212.496353,352.753601 
	C213.336960,354.856689 213.784195,356.443268 214.246231,358.025543 
	C217.824127,370.278046 222.551529,381.789948 233.781403,388.868835 
	C232.938995,388.919708 232.459824,388.974182 231.980667,389.028625 
z"/>
<path fill="#555272" opacity="1.000000" stroke="none" 
	d="
M643.873779,371.319916 
	C645.433167,369.902618 646.973999,367.318512 648.555603,367.293243 
	C652.798096,367.225433 654.614014,365.041382 656.286072,361.695374 
	C656.914368,360.438080 658.921021,359.869537 660.688965,358.980713 
	C662.107849,359.434326 663.115784,359.951569 664.169800,360.345062 
	C671.546509,363.099274 671.425293,363.308136 668.629272,370.527191 
	C666.170715,376.875000 664.386536,383.483978 662.385498,390.331787 
	C661.075928,391.860413 659.799133,393.219025 658.267517,394.165100 
	C656.122742,395.489929 653.788025,396.507477 651.534546,397.656494 
	C650.685303,395.327606 649.835999,392.998749 648.962830,389.814941 
	C648.593750,385.528992 648.655945,381.988678 647.774109,378.701630 
	C647.071106,376.080872 645.216919,373.768951 643.873779,371.319916 
z"/>
<path fill="#423F56" opacity="1.000000" stroke="none" 
	d="
M600.950623,125.233612 
	C598.089905,120.583595 597.981750,115.775803 600.277527,110.520569 
	C605.098450,102.358757 612.329895,102.004822 620.285522,103.129662 
	C630.699280,104.602066 637.210815,116.790291 631.370056,124.794495 
	C630.578674,123.983841 630.159546,123.317123 629.740417,122.650406 
	C626.879883,125.095955 625.226196,122.343864 623.074402,121.229195 
	C617.732117,118.461792 608.428528,119.925873 605.915039,123.747124 
	C605.660461,123.387009 605.405884,123.026886 605.151306,122.666771 
	C603.751099,123.522392 602.350891,124.378006 600.950623,125.233612 
z"/>
<path fill="#A0626B" opacity="1.000000" stroke="none" 
	d="
M600.967529,125.633308 
	C602.350891,124.378006 603.751099,123.522392 605.151306,122.666771 
	C605.405884,123.026886 605.660461,123.387009 605.915039,123.747124 
	C608.428528,119.925873 617.732117,118.461792 623.074402,121.229195 
	C625.226196,122.343864 626.879883,125.095955 629.740417,122.650406 
	C630.159546,123.317123 630.578674,123.983841 631.040161,124.989426 
	C630.040710,129.303375 628.998840,133.278473 627.548218,137.673676 
	C621.431946,141.463593 615.471008,143.229874 608.875488,140.979340 
	C604.439026,136.950775 600.804382,132.498886 600.967529,125.633308 
z"/>
<path fill="#FDC10E" opacity="1.000000" stroke="none" 
	d="
M234.144638,388.872437 
	C222.551529,381.789948 217.824127,370.278046 214.246231,358.025543 
	C213.784195,356.443268 213.336960,354.856689 212.798767,353.090912 
	C212.084579,346.649292 211.454498,340.388855 210.824417,334.128418 
	C211.189804,333.985168 211.555191,333.841888 211.920578,333.698639 
	C221.303635,351.612061 230.686707,369.525482 240.086121,388.084442 
	C238.116516,388.777435 236.130585,388.824921 234.144638,388.872437 
z"/>
<path fill="#91595E" opacity="1.000000" stroke="none" 
	d="
M608.831787,141.360947 
	C615.471008,143.229874 621.431946,141.463593 627.492554,138.052765 
	C628.665039,140.239655 629.484436,142.467545 630.649780,144.783752 
	C631.757996,148.910385 629.618103,151.494766 626.586304,153.608582 
	C624.279480,155.216949 621.944031,156.784286 619.552612,158.416779 
	C615.715210,154.966751 608.433777,155.005325 607.762573,147.325378 
	C608.002319,145.230576 608.395203,143.486557 608.831787,141.360947 
z"/>
<path fill="#A6A5A5" opacity="1.000000" stroke="none" 
	d="
M233.781403,388.868835 
	C236.130585,388.824921 238.116516,388.777435 240.261490,388.417053 
	C240.789490,386.569366 241.158463,385.034576 241.718079,383.220459 
	C243.349045,383.995239 239.732346,387.703186 244.886108,387.143250 
	C247.712051,387.983032 249.856903,388.760803 251.854782,389.816650 
	C253.088074,390.468445 254.097519,391.543854 255.207458,392.429047 
	C256.086609,400.333313 256.080566,400.407074 247.445145,399.699982 
	C243.826416,399.403656 240.166916,398.999512 236.669144,398.092316 
	C234.970367,397.651703 233.601227,395.940094 232.042252,394.453613 
	C232.060760,392.631744 232.119873,391.160126 232.079834,389.358582 
	C232.459824,388.974182 232.938995,388.919708 233.781403,388.868835 
z"/>

<path fill="#3F3D56" opacity="1.000000" stroke="none" 
	d="
M598.019531,255.178635 
	C596.191162,275.392242 600.189819,294.936249 605.046326,314.341003 
	C605.956299,317.976959 608.027771,321.322205 609.762329,325.398712 
	C609.989990,341.331543 610.018555,356.667236 609.944458,372.404968 
	C609.419312,377.839264 608.996887,382.871521 608.574463,387.903778 
	C605.614075,396.342041 600.576782,399.966217 591.888916,400.004333 
	C517.977417,400.328491 444.065979,400.697235 370.154175,400.946106 
	C362.202545,400.972870 354.217682,400.643738 346.305511,399.883514 
	C339.905457,399.268616 336.340393,394.440186 333.097321,388.659607 
	C332.642670,384.763428 332.315552,381.469299 332.279053,378.172028 
	C332.123535,364.116577 332.053986,350.060242 331.953064,336.004211 
	C332.041290,317.214966 332.255219,298.425110 332.159698,279.636810 
	C332.117859,271.408722 334.135193,264.696442 340.831879,259.040894 
	C350.345764,251.006119 359.067261,242.033096 368.435608,233.706863 
	C368.838593,248.630386 368.933289,263.308014 368.946411,278.407654 
	C368.218353,282.580750 369.533081,284.697845 373.229431,286.460419 
	C404.430969,301.338409 435.478424,316.539520 466.680389,331.416656 
	C468.837891,332.445343 472.303986,332.576324 474.419922,331.568176 
	C505.925903,316.557495 537.312195,301.295319 568.701233,286.039948 
	C570.285034,285.270233 571.637268,284.023926 573.468750,282.993347 
	C580.159119,280.217834 586.478149,277.448425 592.797119,274.679016 
	C592.636353,274.121216 592.475586,273.563385 592.314758,273.005585 
	C585.906311,273.005585 579.497803,273.005585 573.005615,272.542969 
	C572.975342,258.852997 573.028870,245.625641 573.391052,232.579651 
	C581.806335,240.233551 589.912964,247.706100 598.019531,255.178635 
z"/>
<path fill="#FFC108" opacity="1.000000" stroke="none" 
	d="
M573.082397,232.398270 
	C573.028870,245.625641 572.975342,258.852997 572.926636,272.951477 
	C572.851807,275.203003 572.772156,276.583466 572.352051,278.019104 
	C566.890137,280.441986 561.730164,282.730164 556.653870,285.190979 
	C532.436584,296.930511 507.996704,308.248260 484.164948,320.726318 
	C475.125000,325.459503 467.465393,327.595642 458.840820,321.032104 
	C457.049896,319.669189 454.581543,319.227966 452.497253,318.214294 
	C425.753998,305.207306 399.025696,292.169617 372.283173,279.161072 
	C371.251617,278.659271 370.115448,278.372589 369.028015,277.985657 
	C368.933289,263.308014 368.838593,248.630386 368.662140,233.492462 
	C368.660156,227.974136 368.739929,222.916077 369.266174,217.388443 
	C378.475159,219.175278 386.507141,217.347549 394.478882,212.622070 
	C411.045837,212.671417 427.145996,212.671417 443.405029,212.671417 
	C443.405029,209.625244 443.405029,207.222946 443.405029,204.203461 
	C429.308990,204.203461 415.524597,204.203461 401.846405,203.828217 
	C403.109192,197.619644 404.265778,191.786301 405.422394,185.952972 
	C409.573608,185.904892 413.724792,185.856796 418.800354,185.830826 
	C430.694489,185.867233 441.664368,185.912323 452.634125,185.889465 
	C476.398376,185.839935 500.162537,185.755646 523.926758,185.685562 
	C529.314514,185.759857 534.702332,185.834167 540.495056,186.365906 
	C538.333740,194.406494 540.059326,201.011887 545.954285,206.253098 
	C547.586365,207.704147 550.253723,207.990753 552.446106,208.811600 
	C552.854675,206.527451 553.920776,204.121323 553.524658,201.986465 
	C552.855286,198.378571 551.260559,194.942337 550.244324,191.985046 
	C555.836792,190.335770 560.845459,188.858643 566.172119,187.598267 
	C571.218872,190.736572 572.876404,195.183624 572.893799,200.505768 
	C572.928467,211.136703 573.016418,221.767441 573.082397,232.398270 
M530.499817,238.831085 
	C535.999329,238.830978 541.504578,238.677719 546.996399,238.883560 
	C550.783386,239.025482 551.644897,237.554306 550.487244,234.111511 
	C494.214996,234.111511 438.116302,234.111511 381.755066,234.111511 
	C381.755066,235.698288 381.755066,237.065521 381.755066,238.830933 
	C431.237885,238.830933 480.368896,238.830933 530.499817,238.831085 
M509.500000,249.182785 
	C466.915009,249.182785 424.330017,249.182785 381.418640,249.182785 
	C381.541656,251.195435 381.618195,252.447418 381.699463,253.776871 
	C438.249023,253.776871 494.477173,253.776871 550.584473,253.776871 
	C551.747437,250.033676 550.315430,249.091507 546.994568,249.128891 
	C534.831055,249.265808 522.665039,249.183029 509.500000,249.182785 
M502.500000,269.802887 
	C517.330566,269.802765 532.161804,269.723206 546.991150,269.857880 
	C550.743774,269.891907 551.671753,268.560120 550.471191,265.094727 
	C494.211365,265.094727 438.117310,265.094727 381.759064,265.094727 
	C381.759064,266.678558 381.759064,268.043427 381.759064,269.288330 
	C382.416565,269.525452 382.720917,269.731171 383.025452,269.731415 
	C422.516968,269.764984 462.008484,269.783447 502.500000,269.802887 
z"/>

<path fill="#59B995" opacity="1.000000" stroke="none" 
	d="
M405.304993,185.571838 
	C404.265778,191.786301 403.109192,197.619644 401.621094,204.026154 
	C398.863739,207.257126 396.437897,209.914917 394.012054,212.572708 
	C386.507141,217.347549 378.475159,219.175278 369.278076,216.916260 
	C357.603668,212.160294 350.051971,204.302124 349.090424,191.714523 
	C347.901642,176.151886 358.768402,163.398178 374.447906,161.269547 
	C388.539825,159.356461 402.061157,169.878555 405.304993,185.571838 
M370.840729,195.587402 
	C367.931000,192.197906 365.021271,188.808426 361.877502,185.146271 
	C359.379761,187.367020 358.076965,188.525360 357.371399,189.152664 
	C362.578461,194.422668 367.209930,199.110138 371.400024,203.350906 
	C379.641174,195.072433 388.151550,186.523483 396.980499,177.654510 
	C396.243469,176.807251 395.184631,175.590073 393.946838,174.167160 
	C386.043457,181.794785 378.769653,188.814789 370.840729,195.587402 
z"/>
<path fill="#A2646A" opacity="1.000000" stroke="none" 
	d="
M565.854187,187.381531 
	C560.845459,188.858643 555.836792,190.335770 550.244324,191.985046 
	C551.260559,194.942337 552.855286,198.378571 553.524658,201.986465 
	C553.920776,204.121323 552.854675,206.527451 552.446106,208.811600 
	C550.253723,207.990753 547.586365,207.704147 545.954285,206.253098 
	C540.059326,201.011887 538.333740,194.406494 540.962524,186.413269 
	C545.356995,182.577820 549.462158,179.380554 555.480652,178.417740 
	C559.601257,177.758530 563.196472,173.815491 567.299683,171.205643 
	C569.771362,174.759872 571.970032,178.448944 573.967896,182.665436 
	C571.129456,184.589081 568.491821,185.985306 565.854187,187.381531 
z"/>
<path fill="#555272" opacity="1.000000" stroke="none" 
	d="
M619.296875,379.957062 
	C621.650940,377.931213 621.654053,372.737213 626.504150,374.138550 
	C631.087830,375.462952 631.634033,379.578094 632.264221,384.259766 
	C633.183777,386.428986 633.946960,387.893738 634.710144,389.358490 
	C634.799622,390.186401 634.807800,391.032959 634.992554,391.839020 
	C635.810059,395.405518 637.353943,399.419281 632.227783,400.859406 
	C626.586426,402.444275 620.133789,399.117249 618.941162,394.468872 
	C618.531128,392.870819 618.307678,391.224884 618.015747,388.781311 
	C618.453918,385.293549 618.875427,382.625305 619.296875,379.957062 
z"/>

<path fill="#35334B" opacity="1.000000" stroke="none" 
	d="
M573.468750,282.993347 
	C573.021790,281.595978 572.946289,280.192505 572.781616,278.376465 
	C572.772156,276.583466 572.851807,275.203003 573.010376,273.414062 
	C579.497803,273.005585 585.906311,273.005585 592.314758,273.005585 
	C592.475586,273.563385 592.636353,274.121216 592.797119,274.679016 
	C586.478149,277.448425 580.159119,280.217834 573.468750,282.993347 
z"/>
<path fill="#F3EFE1" opacity="1.000000" stroke="none" 
	d="
M529.999878,238.831009 
	C480.368896,238.830933 431.237885,238.830933 381.755066,238.830933 
	C381.755066,237.065521 381.755066,235.698288 381.755066,234.111511 
	C438.116302,234.111511 494.214996,234.111511 550.487244,234.111511 
	C551.644897,237.554306 550.783386,239.025482 546.996399,238.883560 
	C541.504578,238.677719 535.999329,238.830978 529.999878,238.831009 
z"/>
<path fill="#F3EFE1" opacity="1.000000" stroke="none" 
	d="
M510.000000,249.182892 
	C522.665039,249.183029 534.831055,249.265808 546.994568,249.128891 
	C550.315430,249.091507 551.747437,250.033676 550.584473,253.776871 
	C494.477173,253.776871 438.249023,253.776871 381.699463,253.776871 
	C381.618195,252.447418 381.541656,251.195435 381.418640,249.182785 
	C424.330017,249.182785 466.915009,249.182785 510.000000,249.182892 
z"/>
<path fill="#F3EFE1" opacity="1.000000" stroke="none" 
	d="
M502.000000,269.802795 
	C462.008484,269.783447 422.516968,269.764984 383.025452,269.731415 
	C382.720917,269.731171 382.416565,269.525452 381.759064,269.288330 
	C381.759064,268.043427 381.759064,266.678558 381.759064,265.094727 
	C438.117310,265.094727 494.211365,265.094727 550.471191,265.094727 
	C551.671753,268.560120 550.743774,269.891907 546.991150,269.857880 
	C532.161804,269.723206 517.330566,269.802765 502.000000,269.802795 
z"/>
<path fill="#F3ECD6" opacity="1.000000" stroke="none" 
	d="
M394.478882,212.622070 
	C396.437897,209.914917 398.863739,207.257126 401.514893,204.401398 
	C415.524597,204.203461 429.308990,204.203461 443.405029,204.203461 
	C443.405029,207.222946 443.405029,209.625244 443.405029,212.671417 
	C427.145996,212.671417 411.045837,212.671417 394.478882,212.622070 
z"/>
<path fill="#F1F9F6" opacity="1.000000" stroke="none" 
	d="
M371.168304,195.711090 
	C378.769653,188.814789 386.043457,181.794785 393.946838,174.167160 
	C395.184631,175.590073 396.243469,176.807251 396.980499,177.654510 
	C388.151550,186.523483 379.641174,195.072433 371.400024,203.350906 
	C367.209930,199.110138 362.578461,194.422668 357.371399,189.152664 
	C358.076965,188.525360 359.379761,187.367020 361.877502,185.146271 
	C365.021271,188.808426 367.931000,192.197906 371.168304,195.711090 
z"/>
</svg>