<?xml version="1.0" standalone="no"?>
<!DOCTYPE svg PUBLIC "-//W3C//DTD SVG 20010904//EN"
 "http://www.w3.org/TR/2001/REC-SVG-20010904/DTD/svg10.dtd">
<svg version="1.0" xmlns="http://www.w3.org/2000/svg"
 width="950.000000pt" height="450.000000pt" viewBox="0 0 950.000000 450.000000"
 preserveAspectRatio="xMidYMid meet">

<g transform="translate(0.000000,450.000000) scale(0.100000,-0.100000)"
fill="#3f3d56" stroke="#3f3d56">
<path d="M6022 3435 c-38 -43 -42 -53 -42 -99 0 -30 6 -60 15 -72 8 -10 15
-29 15 -42 0 -29 15 -60 48 -94 19 -21 23 -33 19 -58 -9 -45 19 -110 48 -110
12 0 30 -9 39 -19 17 -19 19 -18 72 21 56 43 75 78 54 103 -16 20 -30 84 -19
90 5 3 13 25 19 48 6 23 18 56 26 72 26 52 8 110 -50 159 -46 39 -51 41 -125
44 l-78 4 -41 -47z"/>
<path d="M4653 3049 c-23 -4 -54 -14 -68 -22 -15 -7 -112 -94 -217 -193 l-191
-179 261 -3 c143 -1 380 -1 525 0 l265 3 -179 170 c-224 212 -285 246 -396
224z"/>
<path d="M5606 2754 c-26 -19 -60 -34 -75 -34 -36 0 -120 -56 -133 -89 -31
-80 54 -232 116 -208 21 8 20 36 -4 104 -28 79 -27 83 20 83 34 0 168 49 193
71 8 6 -52 109 -63 108 -3 0 -27 -16 -54 -35z"/>
<path d="M6690 2698 c-42 -49 -43 -52 -24 -64 59 -40 56 -32 35 -116 -21 -85
-62 -153 -118 -195 -77 -58 -113 -100 -113 -130 l0 -29 -137 -18 c-140 -18
-332 -52 -340 -60 -3 -2 -7 -32 -10 -65 -3 -34 -10 -61 -14 -61 -5 0 -62 51
-127 112 l-117 113 -5 -258 -5 -259 -504 -244 c-278 -134 -510 -244 -515 -243
-6 0 -236 109 -511 243 l-500 242 -5 257 -5 256 -172 -165 c-169 -162 -172
-165 -183 -221 -9 -41 -11 -214 -9 -613 l4 -557 -155 -7 c-297 -12 -565 -27
-597 -32 -30 -4 -32 -6 -21 -30 16 -34 1 -42 -65 -37 -104 8 -138 15 -155 32
-16 17 -24 17 -169 0 -174 -19 -292 -43 -319 -64 -19 -15 -19 -15 0 -29 80
-63 752 -118 1776 -146 458 -13 1822 -13 2280 0 1024 28 1696 83 1776 146 19
14 19 14 0 28 -28 22 -141 45 -330 66 -181 21 -579 50 -672 50 -54 0 -56 1
-49 23 4 12 10 42 15 67 4 25 19 71 34 103 15 31 26 64 24 74 -2 9 -22 23 -45
32 -29 10 -43 21 -43 33 0 10 -17 28 -37 42 -54 33 -69 54 -96 125 -20 52 -22
72 -16 119 4 31 17 165 29 297 11 132 25 290 30 351 6 60 10 145 10 187 0 46
4 77 10 77 21 0 101 84 119 124 10 23 44 71 76 107 66 73 110 157 108 209 0
41 -41 125 -75 157 l-24 22 -44 -51z m-425 -1196 c-9 -139 -24 -119 -32 42 -6
115 -4 128 13 147 19 21 19 21 22 -32 2 -30 1 -101 -3 -157z m-111 -321 c57
-79 57 -80 46 -121 -11 -40 -40 -263 -40 -307 0 -12 6 -28 13 -35 10 -9 11
-22 3 -55 -9 -43 -10 -43 -54 -43 l-45 0 6 113 c4 61 7 205 7 320 0 114 2 207
3 207 2 0 30 -36 61 -79z m286 -391 c17 0 28 -35 35 -108 l8 -72 -50 0 c-78 0
-110 9 -117 34 -3 11 -1 22 4 24 6 2 10 12 10 23 0 10 6 36 14 56 8 21 17 51
20 66 l7 28 30 -25 c17 -14 35 -26 39 -26z"/>
<path d="M2897 1379 c-49 -11 -130 -53 -191 -97 -111 -81 -222 -260 -266 -427
-24 -94 -38 -225 -23 -225 11 0 2 -11 337 425 132 171 243 316 249 323 11 14
-45 15 -106 1z"/>
<path d="M1930 1190 c1 -51 29 -177 54 -243 61 -160 193 -293 322 -323 28 -6
28 -6 -7 19 -65 46 -120 137 -158 262 -18 56 -38 91 -107 180 -107 137 -104
134 -104 105z"/>
</g>
</svg>
